HIERARCHY
ROOT Hips
{
	OFFSET 15.585500 22.159004 44.358299
	CHANNELS 6 Xposition Yposition Zposition Zrotation Xrotation Yrotation
	JOINT Chest
	{
		OFFSET -0.128500 0.160400 6.566002
		CHANNELS 6 Xposition Yposition Zposition Zrotation Xrotation Yrotation
		JOINT Chest2
		{
			OFFSET 0.000000 0.000000 3.554802
			CHANNELS 6 Xposition Yposition Zposition Zrotation Xrotation Yrotation
			JOINT Neck
			{
				OFFSET 0.000000 0.000000 8.267998
				CHANNELS 6 Xposition Yposition Zposition Zrotation Xrotation Yrotation
				JOINT Head
				{
					OFFSET 0.000000 0.000002 2.173897
					CHANNELS 6 Xposition Yposition Zposition Zrotation Xrotation Yrotation
					End Site
					{
						OFFSET 0.000000 0.000000 7.718697
					}
				}
			}
			JOINT LeftCollar
			{
				OFFSET 2.057500 0.117599 5.946301
				CHANNELS 6 Xposition Yposition Zposition Zrotation Xrotation Yrotation
				JOINT LeftShoulder
				{
					OFFSET 4.957699 0.000000 0.000000
					CHANNELS 6 Xposition Yposition Zposition Zrotation Xrotation Yrotation
					JOINT LeftElbow
					{
						OFFSET 0.000000 0.000000 -8.465500
						CHANNELS 6 Xposition Yposition Zposition Zrotation Xrotation Yrotation
						JOINT LeftWrist
						{
							OFFSET 0.000000 -0.000002 -14.594898
							CHANNELS 6 Xposition Yposition Zposition Zrotation Xrotation Yrotation
							End Site
							{
								OFFSET 0.000000 0.000000 -2.173901
							}
						}
					}
				}
			}
			JOINT RightCollar
			{
				OFFSET -3.048500 -0.728800 6.604099
				CHANNELS 6 Xposition Yposition Zposition Zrotation Xrotation Yrotation
				JOINT RightShoulder
				{
					OFFSET -3.710299 0.000000 0.000000
					CHANNELS 6 Xposition Yposition Zposition Zrotation Xrotation Yrotation
					JOINT RightElbow
					{
						OFFSET 0.000000 0.000000 -10.450901
						CHANNELS 6 Xposition Yposition Zposition Zrotation Xrotation Yrotation
						JOINT RightWrist
						{
							OFFSET 0.000000 0.000000 -12.539200
							CHANNELS 6 Xposition Yposition Zposition Zrotation Xrotation Yrotation
							End Site
							{
								OFFSET 0.000000 -0.000002 -2.173901
							}
						}
					}
				}
			}
		}
	}
	JOINT LeftHip
	{
		OFFSET 2.442599 -0.601400 -2.767502
		CHANNELS 6 Xposition Yposition Zposition Zrotation Xrotation Yrotation
		JOINT LeftKnee
		{
			OFFSET 0.000000 -0.000002 -17.033703
			CHANNELS 6 Xposition Yposition Zposition Zrotation Xrotation Yrotation
			JOINT LeftAnkle
			{
				OFFSET 0.000000 -0.000002 -19.318800
				CHANNELS 6 Xposition Yposition Zposition Zrotation Xrotation Yrotation
				End Site
				{
					OFFSET 0.000000 -8.281900 0.000000
				}
			}
		}
	}
	JOINT RightHip
	{
		OFFSET -3.126200 -0.601400 -2.283501
		CHANNELS 6 Xposition Yposition Zposition Zrotation Xrotation Yrotation
		JOINT RightKnee
		{
			OFFSET 0.000000 -0.000002 -16.919401
			CHANNELS 6 Xposition Yposition Zposition Zrotation Xrotation Yrotation
			JOINT RightAnkle
			{
				OFFSET 0.000000 -0.000002 -18.035900
				CHANNELS 6 Xposition Yposition Zposition Zrotation Xrotation Yrotation
				End Site
				{
					OFFSET 0.000000 -9.230099 0.000000
				}
			}
		}
	}
}
MOTION
Frames: 8
Frame Time: 0.041667
23.936100 37.561108 9.166706 2.972163 10.271123 -3.874222 -0.128497 0.160393 6.566004 -2.615900 -1.079368 2.136246 -0.000001 -0.000005 3.554799 0.418865 -12.651822 -1.294464 -0.000002 0.000003 8.268003 1.033779 5.565553 5.353634 0.000001 0.000002 2.173894 3.593823 -2.444347 -0.931120 2.057500 0.117605 5.946307 7.790469 -11.841364 -2.362678 4.957697 0.000002 -0.000002 -37.280177 -8.212142 -115.984480 0.000004 0.000000 -8.465499 -179.124976 -104.390870 -226.845117 0.000001 -0.000005 -14.594896 -666.370522 -7.966599 -400.880687 -3.048503 -0.728801 6.604100 18.477620 -1.903464 0.050769 -3.710297 0.000005 -0.000003 46.462570 0.233003 161.085709 0.000000 0.000006 -10.450891 311.057688 -30.694040 348.997750 0.000003 -0.000002 -12.539204 489.475398 195.144980 -148.301425 2.442596 -0.601403 -2.767502 135.650617 7.180697 97.410710 -0.000002 -0.000008 -17.033710 -175.362348 43.366708 169.052755 -0.000001 0.000002 -19.318798 -142.097523 120.731216 399.257233 -3.126194 -0.601404 -2.283499 -136.705102 -19.376755 -103.246280 -0.000003 0.000000 -16.919401 313.347933 -53.242947 -217.363489 0.000000 -0.000000 -18.035896 169.810114 53.495920 -180.587210
23.936398 37.561302 9.166599 2.970860 10.259604 -3.875688 -0.128499 0.160399 6.566007 -2.614476 -1.070309 2.134389 0.000000 0.000002 3.554804 0.433328 -12.655055 -1.292234 -0.000001 0.000009 8.268000 1.016383 5.595607 5.360049 0.000002 0.000001 2.173896 3.583927 -2.467458 -0.925562 2.057502 0.117603 5.946303 7.813187 -11.833259 -2.359953 4.957696 0.000006 -0.000005 -37.320471 -8.258500 -115.972241 0.000003 -0.000005 -8.465500 -179.615124 -104.416278 -227.270324 0.000003 -0.000007 -14.594898 -666.318941 -8.004220 -400.837083 -3.048503 -0.728797 6.604099 18.250537 -2.035658 0.175177 -3.710298 0.000002 -0.000005 46.823341 0.244207 160.868877 0.000003 0.000002 -10.450893 311.021352 -30.724899 348.915542 0.000005 -0.000007 -12.539194 489.645552 195.060818 -148.198070 2.442597 -0.601404 -2.767502 135.651027 7.164349 97.391599 -0.000001 0.000001 -17.033710 -175.346870 43.367811 169.050570 -0.000002 -0.000001 -19.318798 -142.086786 120.736434 399.244392 -3.126198 -0.601407 -2.283501 -136.696278 -19.405583 -103.230072 -0.000005 -0.000003 -16.919394 313.322333 -53.247004 -217.369432 -0.000000 0.000000 -18.035898 169.807273 53.492262 -180.574301
23.936598 37.561798 9.166405 2.967944 10.245634 -3.875583 -0.128501 0.160402 6.566007 -2.611457 -1.063597 2.132547 -0.000000 0.000000 3.554807 0.446497 -12.656053 -1.289926 0.000002 0.000001 8.268003 1.000576 5.630222 5.366109 0.000001 0.000007 2.173901 3.574156 -2.491562 -0.916641 2.057502 0.117606 5.946305 7.840864 -11.831490 -2.366800 4.957695 0.000008 -0.000003 -37.358297 -8.303714 -115.947884 0.000001 -0.000004 -8.465504 -180.080492 -104.440115 -227.672813 0.000001 -0.000004 -14.594893 -666.268998 -8.046288 -400.784845 -3.048501 -0.728798 6.604100 18.022767 -2.155635 0.281995 -3.710297 0.000005 -0.000006 47.219000 0.244969 160.674982 0.000002 0.000006 -10.450897 311.015259 -30.738727 348.832623 0.000004 -0.000002 -12.539196 489.815268 194.980331 -148.115575 2.442592 -0.601403 -2.767499 135.651450 7.142692 97.372625 -0.000001 -0.000007 -17.033703 -175.331981 43.370827 169.050365 -0.000002 0.000001 -19.318804 -142.078440 120.741256 399.232944 -3.126200 -0.601403 -2.283495 -136.684393 -19.437516 -103.210340 -0.000002 -0.000005 -16.919397 313.299411 -53.254418 -217.372533 -0.000001 -0.000002 -18.035898 169.810428 53.488263 -180.561228
23.936699 37.562500 9.166306 2.963589 10.228381 -3.874593 -0.128500 0.160400 6.566005 -2.607167 -1.058756 2.131042 0.000001 0.000001 3.554799 0.458323 -12.655017 -1.287743 -0.000001 0.000002 8.268005 0.986445 5.668797 5.371523 -0.000000 -0.000001 2.173895 3.570315 -2.359556 -0.931643 2.057500 0.117604 5.946307 7.872909 -11.835435 -2.381938 4.957700 0.000004 0.000005 -37.392216 -8.347252 -115.912272 -0.000001 -0.000002 -8.465502 -180.522897 -104.463584 -228.055795 -0.000005 -0.000006 -14.594898 -666.221132 -8.092560 -400.722226 -3.048503 -0.728799 6.604100 17.777637 -2.300358 0.467064 -3.710296 -0.000000 -0.000008 47.662996 0.189595 160.411692 -0.000000 0.000000 -10.450896 311.043263 -30.735718 348.753229 0.000003 -0.000000 -12.539194 489.977007 194.904571 -148.062532 2.442595 -0.601404 -2.767500 135.652174 7.116062 97.352407 -0.000001 0.000002 -17.033707 -175.318375 43.375270 169.052305 -0.000002 0.000000 -19.318806 -142.072730 120.745969 399.222836 -3.126195 -0.601403 -2.283499 -136.670050 -19.473086 -103.186823 -0.000003 -0.000004 -16.919397 313.280041 -53.264516 -217.372410 0.000001 -0.000004 -18.035898 169.819868 53.483865 -180.548346
23.936701 37.563503 9.166199 2.957765 10.206831 -3.872876 -0.128506 0.160399 6.566004 -2.601615 -1.054912 2.130510 -0.000003 0.000001 3.554802 0.469142 -12.651652 -1.285518 -0.000003 -0.000003 8.267999 0.973698 5.711205 5.376317 -0.000001 -0.000001 2.173893 3.561860 -2.362720 -0.919169 2.057500 0.117603 5.946299 7.907432 -11.843578 -2.403486 4.957694 0.000008 -0.000001 -37.420141 -8.389830 -115.867821 -0.000001 -0.000006 -8.465496 -180.946505 -104.488760 -228.423970 -0.000003 -0.000005 -14.594894 -666.174960 -8.143524 -400.645127 -3.048503 -0.728804 6.604096 17.526820 -2.449697 0.678980 -3.710299 -0.000002 -0.000003 48.136229 0.103170 160.129837 0.000003 0.000000 -10.450895 311.107030 -30.716580 348.682387 0.000003 0.000002 -12.539192 490.123009 194.833004 -148.047847 2.442589 -0.601402 -2.767499 135.653608 7.084561 97.329718 -0.000001 -0.000002 -17.033709 -175.306449 43.380604 169.056225 -0.000003 -0.000004 -19.318802 -142.068973 120.750750 399.213383 -3.126204 -0.601402 -2.283496 -136.653084 -19.512119 -103.158717 -0.000004 -0.000003 -16.919401 313.264878 -53.277050 -217.369035 0.000000 -0.000003 -18.035896 169.835331 53.479094 -180.535546
23.936600 37.564503 9.166199 2.950459 10.180071 -3.870690 -0.128499 0.160398 6.566003 -2.594939 -1.051382 2.131085 -0.000002 0.000001 3.554800 0.479054 -12.646067 -1.283230 -0.000000 -0.000005 8.267997 0.962236 5.757337 5.380606 -0.000001 0.000002 2.173897 3.553967 -2.363705 -0.903706 2.057502 0.117603 5.946300 7.942050 -11.854547 -2.430035 4.957696 0.000005 0.000006 -37.439194 -8.431635 -115.816226 0.000003 0.000005 -8.465499 -181.358516 -104.519202 -228.785628 0.000000 -0.000010 -14.594894 -666.129608 -8.200671 -400.546663 -3.048504 -0.728802 6.604096 17.274855 -2.601059 0.913568 -3.710301 -0.000000 -0.000011 48.623294 -0.010485 159.835962 0.000004 0.000001 -10.450891 311.204155 -30.682340 348.624385 0.000003 0.000001 -12.539193 490.246171 194.763076 -148.081233 2.442595 -0.601399 -2.767507 135.656108 7.048589 97.303032 -0.000003 -0.000005 -17.033703 -175.296873 43.386260 169.062140 -0.000002 0.000002 -19.318802 -142.066897 120.755846 399.204176 -3.126195 -0.601404 -2.283500 -136.633631 -19.555607 -103.125331 -0.000003 -0.000002 -16.919395 313.254031 -53.291643 -217.362315 0.000000 -0.000002 -18.035898 169.856641 53.473974 -180.522637
23.936398 37.565601 9.166397 2.941752 10.147083 -3.868207 -0.128501 0.160402 6.566007 -2.587146 -1.047470 2.133197 -0.000001 -0.000007 3.554811 0.488250 -12.637862 -1.280943 0.000001 0.000006 8.268001 0.952058 5.807196 5.384387 0.000001 0.000002 2.173893 3.546708 -2.363433 -0.885494 2.057502 0.117603 5.946309 7.973825 -11.867484 -2.461306 4.957693 0.000003 -0.000003 -37.446229 -8.473951 -115.758797 0.000008 -0.000001 -8.465504 -181.766087 -104.559118 -229.148393 -0.000003 0.000003 -14.594894 -666.084419 -8.265877 -400.416562 -3.048502 -0.728797 6.604105 17.068209 -2.782783 1.105220 -3.710297 0.000003 -0.000008 49.058223 -0.097597 159.568956 -0.000008 0.000001 -10.450891 311.314230 -30.636858 348.552777 0.000005 0.000000 -12.539194 490.339827 194.690991 -148.172949 2.442594 -0.601406 -2.767506 135.660002 7.008324 97.271135 -0.000003 0.000001 -17.033709 -175.290111 43.391789 169.069995 -0.000002 -0.000000 -19.318808 -142.066350 120.761460 399.194887 -3.126195 -0.601400 -2.283501 -136.611761 -19.604671 -103.085935 -0.000004 -0.000001 -16.919392 313.246491 -53.307905 -217.352930 0.000000 -0.000002 -18.035898 169.883388 53.468572 -180.509523
23.936003 37.566704 9.166695 2.931627 10.106965 -3.865686 -0.128501 0.160395 6.566001 -2.578263 -1.042691 2.136766 -0.000000 -0.000004 3.554801 0.496525 -12.627030 -1.278700 -0.000003 0.000003 8.267992 0.943216 5.861192 5.387740 -0.000003 0.000001 2.173898 3.540172 -2.362502 -0.864491 2.057504 0.117606 5.946299 7.999722 -11.881573 -2.498027 4.957699 -0.000001 0.000005 -37.438172 -8.518525 -115.696342 0.000002 -0.000003 -8.465502 -182.174751 -104.613534 -229.518016 -0.000003 -0.000001 -14.594896 -666.038302 -8.342077 -400.241791 -3.048502 -0.728799 6.604096 16.831285 -2.928137 1.367945 -3.710299 0.000001 -0.000011 49.517564 -0.246512 159.275995 0.000003 0.000001 -10.450894 311.461762 -30.573778 348.530784 0.000005 0.000003 -12.539202 490.398730 194.611255 -148.335385 2.442596 -0.601403 -2.767503 135.665807 6.964075 97.232968 -0.000001 0.000004 -17.033705 -175.286246 43.396549 169.079257 -0.000001 -0.000000 -19.318806 -142.066746 120.767758 399.185242 -3.126200 -0.601408 -2.283499 -136.587145 -19.660500 -103.039701 -0.000003 -0.000003 -16.919395 313.240945 -53.325548 -217.341564 -0.000000 -0.000004 -18.035898 169.914698 53.462626 -180.495904
